<?xml version="1.0" encoding="utf-8"?>
<svg width="64" height="64" viewBox="0 0 5.12 5.12" preserveAspectRatio="xMinYMin meet" xmlns="http://www.w3.org/2000/svg">
  <path d="M 4.12 5.12 L 0.968 5.12 C 0.699 5.119 0.481 4.901 0.48 4.632 L 0.48 0.488 C 0.481 0.219 0.699 0.001 0.968 0 L 4.12 0 C 4.389 0.001 4.607 0.219 4.608 0.488 L 4.608 4.632 C 4.607 4.901 4.389 5.119 4.12 5.12 Z M 3.068 4.415 L 3.068 4.403 L 3.065 4.403 Z M 3.068 4.403 L 3.62 4.403 L 3.62 2.377 C 3.62 1.262 2.01 1.897 2.01 1.897 L 2.01 0.697 L 1.436 0.7 C 1.436 0.7 1.436 2.6 1.438 2.582 C 3.2 1.895 3.068 2.382 3.068 2.382 Z M 3.406 1.429 C 3.738 0.999 3.846 0.699 3.846 0.699 L 3.216 0.699 C 3.216 0.699 3.016 1.159 2.796 1.429 Z M 1.446 4.414 L 2.026 3.834 L 1.446 3.254 Z" fill="#6762a6"/>
</svg>