<?xml version="1.0" encoding="utf-8"?>
<!-- Generator: Adobe Illustrator 26.5.0, SVG Export Plug-In . SVG Version: 6.00 Build 0)  -->
<svg version="1.1" id="Layer_1" xmlns="http://www.w3.org/2000/svg" xmlns:xlink="http://www.w3.org/1999/xlink" x="0px" y="0px"
	 viewBox="0 0 171 171.4" style="enable-background:new 0 0 171 171.4;" xml:space="preserve">
<style type="text/css">
	.st0{fill:#46E3B7;}
</style>
<g id="Group_2766" transform="translate(-15853 -8503)">
	<g>
		<polygon class="st0" points="15966.3,8503.4 15964.3,8503.4 15964.3,8505.4 15964.3,8524 15964.3,8526 15966.3,8526 15984.9,8526 
			15986.9,8526 15986.9,8524 15986.9,8505.4 15986.9,8503.4 15984.9,8503.4 		"/>
		<path class="st0" d="M15906.5,8503.4c-7.2,0-14.2,1.4-20.8,4.2c-6.4,2.7-12.1,6.6-17,11.5s-8.8,10.6-11.5,17
			c-2.8,6.6-4.2,13.6-4.2,20.8v78.4v2h2h18.6h2v-2v-78.7c0.4-8.1,3.8-15.7,9.5-21.3c5.8-5.7,13.4-9,21.5-9.3h41.2h2v-2v-18.6v-2h-2
			H15906.5z"/>
		<polygon class="st0" points="16003.4,8577.6 16001.4,8577.6 16001.4,8579.6 16001.4,8598.2 16001.4,8600.2 16003.4,8600.2 
			16022,8600.2 16024,8600.2 16024,8598.2 16024,8579.6 16024,8577.6 16022,8577.6 		"/>
		<polygon class="st0" points="16003.4,8540.5 16001.4,8540.5 16001.4,8542.5 16001.4,8561.1 16001.4,8563.1 16003.4,8563.1 
			16022,8563.1 16024,8563.1 16024,8561.1 16024,8542.5 16024,8540.5 16022,8540.5 		"/>
		<polygon class="st0" points="16022,8503.4 16003.4,8503.4 16001.4,8503.4 16001.4,8505.4 16001.4,8524 16001.4,8526 16003.4,8526 
			16022,8526 16024,8526 16024,8524 16024,8505.4 16024,8503.4 		"/>
		<polygon class="st0" points="16003.4,8614.7 16001.4,8614.7 16001.4,8616.7 16001.4,8635.3 16001.4,8637.3 16003.4,8637.3 
			16022,8637.3 16024,8637.3 16024,8635.3 16024,8616.7 16024,8614.7 16022,8614.7 		"/>
		<polygon class="st0" points="16003.4,8651.8 16001.4,8651.8 16001.4,8653.8 16001.4,8672.4 16001.4,8674.4 16003.4,8674.4 
			16022,8674.4 16024,8674.4 16024,8672.4 16024,8653.8 16024,8651.8 16022,8651.8 		"/>
		<polygon class="st0" points="15966.3,8651.8 15964.3,8651.8 15964.3,8653.8 15964.3,8672.4 15964.3,8674.4 15966.3,8674.4 
			15984.9,8674.4 15986.9,8674.4 15986.9,8672.4 15986.9,8653.8 15986.9,8651.8 15984.9,8651.8 		"/>
		<polygon class="st0" points="15929.2,8651.8 15927.2,8651.8 15927.2,8653.8 15927.2,8672.4 15927.2,8674.4 15929.2,8674.4 
			15947.8,8674.4 15949.8,8674.4 15949.8,8672.4 15949.8,8653.8 15949.8,8651.8 15947.8,8651.8 		"/>
		<polygon class="st0" points="15892.1,8651.8 15890.1,8651.8 15890.1,8653.8 15890.1,8672.4 15890.1,8674.4 15892.1,8674.4 
			15910.7,8674.4 15912.7,8674.4 15912.7,8672.4 15912.7,8653.8 15912.7,8651.8 15910.7,8651.8 		"/>
		<polygon class="st0" points="15855,8651.8 15853,8651.8 15853,8653.8 15853,8672.4 15853,8674.4 15855,8674.4 15873.6,8674.4 
			15875.6,8674.4 15875.6,8672.4 15875.6,8653.8 15875.6,8651.8 15873.6,8651.8 		"/>
	</g>
</g>
</svg>
